# xmcd CD database file
# Copyright (C) 1995-1998 Ti Kan
#
# Track frame offsets:
#	150
#	19558
#	37167
#	58031
#	75806
#	93999
#	114519
#	129980
#	148503
#	165702
#	181541
#
# Disc length: 2638 seconds
#
# Revision: 2
# Processed by: cddbd v1.4b41PL1 Copyright (c) Steve Scherf et al.
# Submitted via: CDex 1.30
#
DISCID=7d0a4c0b
DTITLE=Craig David - Born to do it
DYEAR=2001
DGENRE=Blues
TTITLE0=Fill me in
TTITLE1=Can´t be messing
TTITLE2=Rendezvous
TTITLE3=7 Days
TTITLE4=Follow me
TTITLE5=Last night
TTITLE6=Walking away
TTITLE7=Time to Party
TTITLE8=Booty man
TTITLE9=Once in a lifetime
TTITLE10=You know what
EXTD=\nYEAR: 2001  ID3G:   0
EXTT0=
EXTT1=
EXTT2=
EXTT3=
EXTT4=
EXTT5=
EXTT6=
EXTT7=
EXTT8=
EXTT9=
EXTT10=
PLAYORDER=
